<?xml version="1.0" encoding="UTF-8" standalone="no"?>
<!-- Created with Inkscape (http://www.inkscape.org/) -->

<svg
   xmlns:dc="http://purl.org/dc/elements/1.1/"
   xmlns:cc="http://creativecommons.org/ns#"
   xmlns:rdf="http://www.w3.org/1999/02/22-rdf-syntax-ns#"
   xmlns:svg="http://www.w3.org/2000/svg"
   xmlns="http://www.w3.org/2000/svg"
   xmlns:xlink="http://www.w3.org/1999/xlink"
   xmlns:sodipodi="http://sodipodi.sourceforge.net/DTD/sodipodi-0.dtd"
   xmlns:inkscape="http://www.inkscape.org/namespaces/inkscape"
   width="385.30109mm"
   height="380.68033mm"
   viewBox="0 0 385.30109 380.68033"
   version="1.1"
   id="svg8"
   inkscape:version="0.92.3 (2405546, 2018-03-11)"
   sodipodi:docname="IonsCal.svg"
   inkscape:export-filename="C:\Users\Alberto\Desktop\IonsCal.png"
   inkscape:export-xdpi="450"
   inkscape:export-ydpi="450">
  <defs
     id="defs2">
    <linearGradient
       inkscape:collect="always"
       id="linearGradient910">
      <stop
         style="stop-color:#0f1d41;stop-opacity:1;"
         offset="0"
         id="stop906" />
      <stop
         style="stop-color:#0f1d41;stop-opacity:0;"
         offset="1"
         id="stop908" />
    </linearGradient>
    <linearGradient
       inkscape:collect="always"
       id="linearGradient4877">
      <stop
         style="stop-color:#fec524;stop-opacity:1;"
         offset="0"
         id="stop4873" />
      <stop
         style="stop-color:#fec524;stop-opacity:0;"
         offset="1"
         id="stop4875" />
    </linearGradient>
    <linearGradient
       inkscape:collect="always"
       id="linearGradient4869">
      <stop
         style="stop-color:#0f1d41;stop-opacity:1;"
         offset="0"
         id="stop4865" />
      <stop
         style="stop-color:#0f1d41;stop-opacity:0;"
         offset="1"
         id="stop4867" />
    </linearGradient>
    <linearGradient
       inkscape:collect="always"
       id="linearGradient4847">
      <stop
         style="stop-color:#0f1d41;stop-opacity:1;"
         offset="0"
         id="stop4843" />
      <stop
         style="stop-color:#0f1d41;stop-opacity:0;"
         offset="1"
         id="stop4845" />
    </linearGradient>
    <clipPath
       clipPathUnits="userSpaceOnUse"
       id="clipPath4762">
      <rect
         style="fill:none;fill-opacity:1;stroke:#0000fe;stroke-width:1.60642385;stroke-miterlimit:4;stroke-dasharray:none;stroke-opacity:0.78823529"
         id="rect4764"
         width="163.49139"
         height="158.17604"
         x="-262.77814"
         y="80.060646" />
    </clipPath>
    <clipPath
       clipPathUnits="userSpaceOnUse"
       id="clipPath4829">
      <path
         style="fill:none;stroke:#000000;stroke-width:0.26458332px;stroke-linecap:butt;stroke-linejoin:miter;stroke-opacity:1"
         d="M -38.02827,14.678317 C 71.395838,11.087543 71.584826,10.331589 71.584826,10.331589 c 0,0 6.425596,-6.8035701 6.99256,-7.7485109 0.566964,-0.9449409 8.220982,-9.1895454 8.220982,-9.1895454 l 8.911805,-75.7228797 c 0,0 -68.287366,-11.358957 -68.955539,-11.225321 C 26.08646,-93.421035 -24.026573,-80.993 -24.026573,-80.993 l -20.980659,66.416476 z"
         id="path4831"
         inkscape:connector-curvature="0" />
    </clipPath>
    <linearGradient
       inkscape:collect="always"
       xlink:href="#linearGradient4847"
       id="linearGradient4851"
       x1="59.957642"
       y1="366.34982"
       x2="58.87735"
       y2="343.44522"
       gradientUnits="userSpaceOnUse" />
    <clipPath
       clipPathUnits="userSpaceOnUse"
       id="clipPath4829-7">
      <path
         style="fill:none;stroke:#000000;stroke-width:0.26458332px;stroke-linecap:butt;stroke-linejoin:miter;stroke-opacity:1"
         d="M -38.02827,14.678317 C 71.395838,11.087543 71.584826,10.331589 71.584826,10.331589 c 0,0 6.425596,-6.8035701 6.99256,-7.7485109 0.566964,-0.9449409 8.220982,-9.1895454 8.220982,-9.1895454 l 8.911805,-75.7228797 c 0,0 -68.287366,-11.358957 -68.955539,-11.225321 C 26.08646,-93.421035 -24.026573,-80.993 -24.026573,-80.993 l -20.980659,66.416476 z"
         id="path4831-2"
         inkscape:connector-curvature="0" />
    </clipPath>
    <clipPath
       clipPathUnits="userSpaceOnUse"
       id="clipPath4829-2">
      <path
         style="fill:none;stroke:#000000;stroke-width:0.26458332px;stroke-linecap:butt;stroke-linejoin:miter;stroke-opacity:1"
         d="M -38.02827,14.678317 C 71.395838,11.087543 71.584826,10.331589 71.584826,10.331589 c 0,0 6.425596,-6.8035701 6.99256,-7.7485109 0.566964,-0.9449409 8.220982,-9.1895454 8.220982,-9.1895454 l 8.911805,-75.7228797 c 0,0 -68.287366,-11.358957 -68.955539,-11.225321 C 26.08646,-93.421035 -24.026573,-80.993 -24.026573,-80.993 l -20.980659,66.416476 z"
         id="path4831-7"
         inkscape:connector-curvature="0" />
    </clipPath>
    <clipPath
       clipPathUnits="userSpaceOnUse"
       id="clipPath4829-0">
      <path
         style="fill:none;stroke:#000000;stroke-width:0.26458332px;stroke-linecap:butt;stroke-linejoin:miter;stroke-opacity:1"
         d="M -38.02827,14.678317 C 71.395838,11.087543 71.584826,10.331589 71.584826,10.331589 c 0,0 6.425596,-6.8035701 6.99256,-7.7485109 0.566964,-0.9449409 8.220982,-9.1895454 8.220982,-9.1895454 l 8.911805,-75.7228797 c 0,0 -68.287366,-11.358957 -68.955539,-11.225321 C 26.08646,-93.421035 -24.026573,-80.993 -24.026573,-80.993 l -20.980659,66.416476 z"
         id="path4831-1"
         inkscape:connector-curvature="0" />
    </clipPath>
    <clipPath
       clipPathUnits="userSpaceOnUse"
       id="clipPath4829-0-9">
      <path
         style="fill:none;stroke:#000000;stroke-width:0.26458332px;stroke-linecap:butt;stroke-linejoin:miter;stroke-opacity:1"
         d="M -38.02827,14.678317 C 71.395838,11.087543 71.584826,10.331589 71.584826,10.331589 c 0,0 6.425596,-6.8035701 6.99256,-7.7485109 0.566964,-0.9449409 8.220982,-9.1895454 8.220982,-9.1895454 l 8.911805,-75.7228797 c 0,0 -68.287366,-11.358957 -68.955539,-11.225321 C 26.08646,-93.421035 -24.026573,-80.993 -24.026573,-80.993 l -20.980659,66.416476 z"
         id="path4831-1-1"
         inkscape:connector-curvature="0" />
    </clipPath>
    <linearGradient
       inkscape:collect="always"
       xlink:href="#linearGradient4877"
       id="linearGradient4879-9-7"
       x1="193.25703"
       y1="554.73169"
       x2="191.23033"
       y2="454.52792"
       gradientUnits="userSpaceOnUse"
       gradientTransform="translate(97.869348,5.6488832)" />
    <radialGradient
       inkscape:collect="always"
       xlink:href="#linearGradient4869"
       id="radialGradient4871-9-6"
       cx="519.73309"
       cy="179.32556"
       fx="519.73309"
       fy="179.32556"
       r="174.03558"
       gradientUnits="userSpaceOnUse"
       gradientTransform="translate(66.066212,-66.238825)" />
    <radialGradient
       inkscape:collect="always"
       xlink:href="#linearGradient910"
       id="radialGradient912-4"
       cx="1012.2172"
       cy="411.70529"
       fx="1012.2172"
       fy="411.70529"
       r="106.37326"
       gradientTransform="matrix(2.0804021,0,0,1.8047934,-1182.8696,-331.60041)"
       gradientUnits="userSpaceOnUse" />
  </defs>
  <sodipodi:namedview
     id="base"
     pagecolor="#fff6ff"
     bordercolor="#666666"
     borderopacity="1.0"
     inkscape:pageopacity="0"
     inkscape:pageshadow="2"
     inkscape:zoom="0.16"
     inkscape:cx="1257.2954"
     inkscape:cy="623.90711"
     inkscape:document-units="mm"
     inkscape:current-layer="layer1"
     showgrid="false"
     fit-margin-top="0"
     fit-margin-left="0"
     fit-margin-right="0"
     fit-margin-bottom="0"
     inkscape:window-width="1920"
     inkscape:window-height="1001"
     inkscape:window-x="-9"
     inkscape:window-y="-9"
     inkscape:window-maximized="1" />
  <metadata
     id="metadata5">
    <rdf:RDF>
      <cc:Work
         rdf:about="">
        <dc:format>image/svg+xml</dc:format>
        <dc:type
           rdf:resource="http://purl.org/dc/dcmitype/StillImage" />
        <dc:title></dc:title>
      </cc:Work>
    </rdf:RDF>
  </metadata>
  <g
     inkscape:label="Layer 1"
     inkscape:groupmode="layer"
     id="layer1"
     transform="translate(-392.68651,61.178441)">
    <rect
       style="fill:#ffffff;fill-opacity:1;stroke:none;stroke-width:1.16499996;stroke-linecap:round;stroke-linejoin:round;stroke-miterlimit:4;stroke-dasharray:none;stroke-opacity:1"
       id="rect5013"
       width="657.67859"
       height="628.19641"
       x="276.327"
       y="-181.8905"
       inkscape:export-xdpi="149.99001"
       inkscape:export-ydpi="149.99001" />
    <circle
       id="path3713-0-2"
       cx="585.79938"
       cy="113.08689"
       style="fill:url(#radialGradient4871-9-6);fill-opacity:1;stroke:none;stroke-width:1.08869934;stroke-opacity:1"
       r="174.03558" />
    <text
       xml:space="preserve"
       style="font-style:normal;font-weight:normal;font-size:114.65277863px;line-height:1.25;font-family:sans-serif;letter-spacing:0px;word-spacing:0px;fill:#fec524;fill-opacity:1;stroke:#0f1d41;stroke-width:2.16499996;stroke-linecap:round;stroke-linejoin:round;stroke-miterlimit:4;stroke-dasharray:none;stroke-opacity:1"
       x="602.96198"
       y="90.707726"
       id="text4883-94-7"><tspan
         sodipodi:role="line"
         id="tspan4881-8-7"
         x="602.96198"
         y="90.707726"
         style="font-size:105.83333588px;fill:#fec524;fill-opacity:1;stroke:#0f1d41;stroke-width:2.16499996;stroke-linecap:round;stroke-linejoin:round;stroke-miterlimit:4;stroke-dasharray:none;stroke-opacity:1">+</tspan></text>
    <ellipse
       style="fill:none;fill-opacity:1;stroke:url(#linearGradient4879-9-7);stroke-width:5.91334295;stroke-miterlimit:4;stroke-dasharray:none;stroke-opacity:1"
       id="path4566-3-2-8-1-4"
       cx="325.88055"
       cy="503.09451"
       rx="262.03116"
       ry="49.10294"
       transform="rotate(-44.623165)" />
    <g
       id="g4927-2-0-8"
       transform="matrix(0.98267499,0,0,0.98267499,-601.56677,609.56653)">
      <path
         sodipodi:nodetypes="cccccccccccscccccccccccccccccccccccccccccccccccccccccccccccccccccccc"
         style="clip-rule:evenodd;fill:#fec524;fill-opacity:1;fill-rule:evenodd;stroke-width:0.75273049"
         inkscape:connector-curvature="0"
         d="m 1244.4036,-543.423 c -7.6522,2.94393 -14.5811,10.34101 -19.5476,16.85815 -8.6993,11.81561 -14.7091,26.10469 -11.5966,41.44685 -3.8299,3.57246 -7.9887,6.97781 -12.8212,7.98572 -1.5145,-0.082 -3.1111,0.67595 -4.25,-0.8393 -1.4671,-2.6067 0.088,-5.46783 0.7987,-7.94657 l 8.7031,-20.59471 0.5419,-1.37452 c -0.04,-0.45992 -0.7061,-0.6029 -1.0448,-0.85432 l -9.0786,0.12722 -1.3482,2.60595 c -1.0539,-1.34588 -2.5216,-2.73317 -4.3267,-2.73317 -8.5736,0 -15.516,4.95974 -21.0614,11.43097 -4.5826,4.92211 -5.5499,11.30827 -10.0896,16.22511 -2.8589,3.15319 -7.4829,4.16335 -11.434,2.60972 -6.2183,-4.03539 -6.3033,-11.72604 -5.8382,-18.7445 2.475,-15.55668 11.0087,-28.96582 21.8992,-40.6482 5.8397,-5.67935 12.2718,-11.85551 20.7649,-11.01622 1.1343,0.50057 2.1407,1.51525 2.3538,2.73393 0.2927,2.72789 -0.335,5.29997 -2.3538,7.1419 -2.6948,3.15846 -7.3587,1.5988 -10.174,4.45842 -0.5901,0.71284 -0.9228,1.55439 -0.9228,2.51939 -0.048,0.96952 0.3771,1.89312 1.2164,2.44261 4.1611,2.14002 7.5672,-1.38652 10.3809,-3.95484 3.9948,-4.62102 7.6116,-10.55027 5.0448,-16.72869 -1.723,-2.98834 -5.2962,-3.15243 -8.1513,-2.94468 -16.3546,2.18593 -30.2289,12.69631 -41.7871,25.224 -10.0858,12.01885 -18.0339,25.97523 -14.7949,42.36819 1.1358,6.26573 6.8943,11.3143 12.9026,12.69631 9.2909,3.02823 18.1182,-1.13512 24.8025,-7.35644 0.4222,1.5145 0.6691,3.07115 1.6401,4.33121 2.5623,3.44902 6.7249,4.2853 10.9726,3.86829 4.0339,-0.54724 7.5227,-3.61386 9.7968,-7.06438 0.5013,1.09673 0.417,2.44035 1.0034,3.53257 0.8009,1.84945 2.5653,3.27964 4.5382,3.53105 9.0839,0.92511 16.691,-3.53105 23.288,-9.41816 2.4832,4.66618 7.3594,8.28003 12.0233,10.00605 2.2304,1.38652 4.8678,1.05699 7.358,2.52466 0.1678,0.63078 -0.2086,1.34061 -0.7129,1.80353 -5.51,3.57397 -13.37,2.43735 -19.9677,2.52467 l -21.7764,-1.21566 c -20.8492,-0.42454 -44.4323,-4.66618 -62.7552,6.38466 -2.5668,1.80956 -5.8879,4.08281 -7.0667,7.14492 0.044,0.29808 0.3373,0.38238 0.5895,0.42077 12.9462,-5.04104 28.6248,-4.66166 43.2947,-4.24164 l 29.8435,1.29997 c 10.932,0.6338 20.9342,0.92586 30.9855,-2.22733 6.0941,-2.10388 13.2043,-5.39672 16.6533,-11.36362 0.078,-0.87768 -0.05,-1.49829 -1.0184,-2.04251 -2.9017,-1.59955 -6.429,-1.68612 -9.2902,-3.44751 -6.5999,-3.07114 -8.615,-10.30036 -8.9545,-16.94246 10.8055,-13.62066 19.9662,-27.95264 25.3061,-43.88569 0.5043,-2.47648 1.3022,-6.01055 -0.2928,-8.28305 -1.0938,-0.87994 -2.9432,-0.87994 -4.2462,-0.37862 z m -51.1548,41.3648 c -2.8152,6.13777 -5.297,12.35984 -7.9443,18.53599 -1.2593,1.72902 -2.8167,3.78698 -4.9612,4.16335 -1.346,0.0866 -2.6053,-0.0414 -3.6162,-0.70982 -2.2702,-3.36998 -0.5457,-7.77872 0.5887,-11.09977 2.3989,-5.34288 6.3793,-10.71754 11.8641,-13.63067 1.2571,-0.0429 2.2993,-0.36856 3.2672,0.30282 0.886,0.55025 0.886,1.64171 0.8017,2.4381 z m 50.1469,-27.23906 c -5.2119,10.97557 -11.3467,21.52056 -19.0388,31.48672 -0.9703,-10.30187 4.4517,-18.41405 8.9522,-26.65419 2.6903,-4.45089 6.0543,-9.24504 10.3825,-12.39823 0.8807,-0.33571 1.388,0.46293 1.5114,1.09147 0.2078,2.22883 -0.965,4.41551 -1.8073,6.47423 z"
         id="path4-6-8-6" />
      <path
         sodipodi:nodetypes="cccccccccccccccccccccccccccccccccccccccccccccccccccccccccccccccccccccccccccccccccccccccccccccccccccccccccccccccccsccccccccccccc"
         style="clip-rule:evenodd;fill:#0f1d41;fill-opacity:1;fill-rule:evenodd;stroke-width:0.75273049;paint-order:stroke fill markers"
         inkscape:connector-curvature="0"
         d="m 1243.6908,-536.86296 c -4.3282,3.15244 -7.6922,7.94734 -10.3824,12.39823 -4.5006,8.24014 -9.9225,16.35307 -8.9522,26.65419 7.6921,-9.96616 13.8269,-20.51191 19.0388,-31.48672 0.8423,-2.05872 2.0158,-4.2454 1.8065,-6.47423 -0.1227,-0.62854 -0.63,-1.42718 -1.5107,-1.09147 z m -2.9003,8.78437 c -4.2913,8.49231 -8.9958,16.85966 -14.4163,24.89054 3.023,-11.52054 8.5713,-22.23867 16.8115,-31.36252 -0.1693,2.26723 -1.4279,4.37261 -2.3952,6.47198 z m -48.3426,23.58229 c -0.9329,-0.78101 -2.0632,-0.85088 -3.3515,-0.54504 -6.1401,2.18668 -9.381,8.53077 -11.7799,13.87289 -1.1344,3.32105 -3.1831,7.82469 -0.5886,11.09977 1.0101,0.66918 2.2702,0.79714 3.6161,0.70982 2.1453,-0.37637 3.7019,-2.43433 4.9612,-4.16335 2.6474,-6.17615 5.1284,-12.39822 7.9443,-18.53599 0.084,-0.79639 0.084,-1.88785 -0.8016,-2.4381 z m -8.5706,19.08624 c -0.8016,1.47008 -1.8073,3.61687 -3.7418,3.90592 -0.6293,0.0429 -1.2217,0 -1.6831,-0.2898 -1.0922,-0.75875 -0.5021,-2.52541 -0.5021,-3.74183 1.1314,-6.30863 3.9105,-12.15132 9.0787,-16.65115 1.1351,-0.66917 2.6037,-1.21867 4.0354,-0.66917 l 0.1678,0.37636 z m 66.2885,-59.14354 c -1.3881,-1.4317 -3.5725,-1.4746 -5.4649,-1.09447 -5.257,1.63568 -9.6281,5.37751 -13.9164,9.37526 -13.4935,13.87131 -22.6963,30.76635 -20.052,50.64822 -3.8239,3.07265 -7.7697,6.85361 -12.9447,6.26573 -0.2514,-1.05081 0.087,-1.7659 0.1249,-2.81371 2.2703,-7.02448 5.3821,-13.66055 8.2816,-20.38695 0.6737,-2.14528 2.3982,-4.12271 1.6801,-6.5608 -0.2929,-0.75574 -0.8777,-1.42718 -1.6801,-1.63869 l -10.4223,-0.0806 c -0.698,0.13313 -1.2165,0.51756 -1.5996,1.09147 -1.2601,-0.71811 -2.6917,-1.05082 -4.2476,-1.17803 -10.5917,0.37862 -20.1755,7.98196 -25.5967,17.15021 -3.2375,5.33837 -5.2134,14.4592 -13.4505,13.91649 -2.3139,-0.0459 -4.3749,-1.93302 -5.3414,-3.95184 -4.2845,-12.10842 0.7972,-24.38169 6.1822,-34.51043 6.7663,-11.14644 16.0535,-24.466 29.1269,-28.5443 1.2232,0 2.9025,-0.54573 3.7411,0.62778 0.5886,0.67068 0.5886,1.72601 0.4253,2.60746 -1.3482,6.73016 -9.0832,3.52804 -12.4479,8.06776 -1.4279,2.06474 -1.6365,4.58865 -0.1649,6.64812 1.5115,1.97441 3.9496,2.01506 6.1355,2.01506 5.7592,-1.67934 10.5917,-7.43773 13.1126,-12.6933 1.9774,-3.70042 2.4403,-9.62742 -0.4163,-13.03127 -2.1467,-2.43809 -5.169,-2.77607 -8.3651,-2.81972 -13.7049,1.51373 -25.1795,8.6165 -35.6854,17.65454 -14.6301,13.87432 -27.0291,30.35159 -24.1296,51.37009 0.67,7.06137 6.8492,13.61689 13.614,15.3429 8.9145,2.81371 18.499,0.5909 25.2247,-5.169 0.9259,2.31239 3.361,4.24164 5.5469,5.25557 5.7185,2.13926 12.8679,1.21867 17.1509,-3.31954 0.9673,2.13775 3.2398,3.82387 5.4656,4.24314 8.9989,1.13512 17.1111,-2.3982 23.8773,-7.90367 3.7404,5.79828 10.2146,8.99739 16.6452,9.79603 -2.9861,1.42869 -6.8536,1.42869 -10.1709,1.50998 l -31.4867,-1.50998 c -23.2029,-0.33797 -46.8281,-4.62778 -65.1549,9.87658 -2.0158,2.14679 -4.6661,4.41326 -4.3304,7.39482 0.5457,1.43621 2.3944,0.97028 3.6176,1.01168 13.9518,-5.42042 30.3057,-4.37262 45.9008,-4.03389 l 27.1578,1.38804 c 12.989,0.50584 25.2646,0.66918 36.1912,-4.41326 5.0019,-2.40046 11.2676,-6.55402 12.5277,-12.44188 -0.7987,-4.20626 -5.9308,-3.78548 -9.0786,-5.21342 -6.3923,-2.43733 -10.0927,-8.91534 -10.0927,-15.55743 10.5104,-13.19988 19.2135,-27.19615 24.8033,-42.45475 1.2201,-3.53031 2.1467,-8.66167 -0.2936,-11.93605 z m -1.2217,9.79227 c -5.3399,15.93305 -14.5006,30.26503 -25.306,43.88569 0.3394,6.6421 2.3552,13.87132 8.9545,16.94246 2.8611,1.76139 6.3876,1.84796 9.2901,3.44751 0.9688,0.54422 1.036,1.45331 0.6339,2.22281 -3.4491,5.96765 -10.1755,9.07944 -16.2688,11.18332 -10.052,3.15319 -20.0535,2.86113 -30.9855,2.22733 l -29.8435,-1.29997 c -14.6699,-0.42077 -30.3485,-0.7994 -43.2947,4.24164 -0.2515,-0.0384 -0.5458,-0.12194 -0.5895,-0.42077 1.1789,-3.06211 4.4999,-5.33536 7.0667,-7.14492 18.3222,-11.05159 41.906,-6.80996 62.7552,-6.38466 l 21.7765,1.21566 c 6.5984,-0.0866 14.4576,1.05006 19.9676,-2.52467 0.5043,-0.46292 0.8807,-1.1735 0.7129,-1.80353 -2.1416,-1.46124 -4.9342,-1.47121 -7.358,-2.52466 -4.6632,-1.72602 -9.5401,-5.33987 -12.0233,-10.00605 -6.597,5.88635 -14.2033,10.34252 -23.288,9.41816 -1.9729,-0.25141 -3.7373,-1.6816 -4.5382,-3.53105 -0.5864,-1.09222 -0.5029,-2.43584 -1.0034,-3.53257 -2.274,3.45052 -5.7629,6.51714 -9.7968,7.06438 -4.2477,0.41776 -8.4095,-0.41927 -10.9726,-3.86829 -0.971,-1.26006 -1.2186,-2.81671 -1.6401,-4.33121 -6.6843,6.22207 -15.5116,10.38542 -24.8025,7.35644 -6.0076,-1.38201 -11.7667,-6.43058 -12.9026,-12.69631 -3.239,-16.39221 4.7083,-30.34934 14.7949,-42.36819 11.5582,-12.52769 25.4333,-23.03732 41.7871,-25.224 2.8543,-0.20775 6.4283,-0.0436 8.1513,2.94468 2.5668,6.17842 -1.05,12.10767 -5.0448,16.72869 -2.8137,2.56832 -6.2198,6.09486 -10.3809,3.95484 -0.8393,-0.54949 -1.2645,-1.47384 -1.2164,-2.44261 0,-0.965 0.3327,-1.80655 0.9228,-2.51939 2.8153,-2.86037 7.4799,-1.30071 10.174,-4.45842 2.0188,-1.84193 2.6465,-4.41401 2.3538,-7.1419 -0.2131,-1.21868 -1.2195,-2.23336 -2.3538,-2.73393 -8.4931,-0.83929 -14.9259,5.33687 -20.7649,11.01622 -10.8905,11.68238 -19.425,25.09152 -21.8992,40.6482 -0.4651,7.01846 -0.3801,14.70911 5.8382,18.7445 3.9511,1.55363 8.5751,0.54422 11.434,-2.60972 4.5397,-4.91608 5.5063,-11.303 10.0896,-16.22511 5.5461,-6.47123 12.4886,-11.43097 21.0614,-11.43097 1.8051,0 3.2728,1.38729 4.3267,2.73317 l 1.3482,-2.60595 9.0786,-0.12722 c 0.8958,0.62779 0.8475,1.19929 0.5029,2.22884 l -8.7031,20.59471 c -0.7099,2.47874 -2.2658,5.33987 -0.7987,7.94657 1.1397,1.516 2.7362,0.75725 4.25,0.8393 4.8325,-1.00866 8.9913,-4.41326 12.8212,-7.98572 -3.1125,-15.34291 2.898,-29.63199 11.5966,-41.44685 4.9665,-6.51789 11.8954,-13.91497 19.5476,-16.85815 1.3023,-0.50132 3.1524,-0.50132 4.2477,0.37787 1.5935,2.27325 0.7956,5.80732 0.2913,8.2838 z"
         id="path6-6-8-9" />
    </g>
  </g>
</svg>
